# xmcd
#
# Track frame offsets: 
#        150
#        11865
#        24470
#        37607
#        49880
#        62997
#        74910
#        87567
#        100912
#        114327
#        128282
#        140857
#        153355
#        165295
#        177475
#        190077
#        202502
#        214990
#        225805
#        236697
#        249835
#        264527
#        275397
#        288225
#        299655
#        313272
#        325992
#
# Disc length: 4535 seconds
#
# Revision: 6
# Processed by: cddbd v1.5.2PL0 Copyright (c) Steve Scherf et al.
# Submitted via: ExactAudioCopy v1.1
#
DISCID=8611b51b
DTITLE=Various Artist - Mercury Blues 'N' Rhythm Story 1945-1955 - Di
DTITLE=sc 7
DYEAR=1996
DGENRE=R&B
TTITLE0=Bill Samuels and His Cats 'N' Jammers Three - Jockey Blues (mono
TTITLE0=)
TTITLE1=Eddie 'Cleanhead' Vinson and His Orchestra - Cherry Red Blues (m
TTITLE1=ono)
TTITLE2=Eddie 'Cleanhead' Vinson and His Orchestra - Somebody's Gotta Go
TTITLE2=(mono)
TTITLE3=Eddie 'Cleanhead' Vinson and His Orchestra - Too Many Women Blue
TTITLE3=s (mono)
TTITLE4=Eddie 'Cleanhead' Vinson and His Orchestra - Just A Dream (mono)
TTITLE5=Eddie 'Cleanhead' Vinson and His Orchestra - I Like To Be Home B
TTITLE5=lues (mono)
TTITLE6=Eddie 'Cleanhead' Vinson and His Orchestra - Cleanhead Blues (mo
TTITLE6=no)
TTITLE7=Eddie 'Cleanhead' Vinson and His Orchestra - When A Woman Loves 
TTITLE7=Her Juice (mono)
TTITLE8=Eddie 'Cleanhead' Vinson and His Orchestra - Kidney Stew Blues (
TTITLE8=mono)
TTITLE9=Eddie 'Cleanhead' Vinson and His Orchestra - King For A Day Blue
TTITLE9=s (mono)
TTITLE10=Eddie 'Cleanhead' Vinson and His Orchestra - Old Maid Boogie (m
TTITLE10=ono)
TTITLE11=Helen Humes - Jet Propelled Papa (mono)
TTITLE12=The Trenier Twins - Hey, Sister Lucy! (mono)
TTITLE13=Eddie 'Cleanhead' Vinson and His Orchestra - When I Get Drunk (
TTITLE13=mono)
TTITLE14=Eddie 'Cleanhead' Vinson and His Orchestra - Oil Man Blues (mon
TTITLE14=o)
TTITLE15=Eddie 'Cleanhead' Vinson and His Orchestra - Ever-Ready Blues (
TTITLE15=mono)
TTITLE16=Eddie 'Cleanhead' Vinson and His Orchestra - Have You Ever Miss
TTITLE16=ed Your Baby (mono)
TTITLE17=Eddie 'Cleanhead' Vinson and His Orchestra - Some Women Do (mon
TTITLE17=o)
TTITLE18=Eddie 'Cleanhead' Vinson and His Orchestra - Alimony Blues (mon
TTITLE18=o)
TTITLE19=Eddie 'Cleanhead' Vinson and His Orchestra - I Took The Front D
TTITLE19=oor In (I Took The Back Door Out) (mono)
TTITLE20=Dinah Washington - Record Ban Blues (mono)
TTITLE21=Dinah Washington - Good Daddy Blues (mono)
TTITLE22=Dinah Washington - Baby Get Lost (mono)
TTITLE23=Dinah Washington - Fine Fine Daddy (mono)
TTITLE24=Dinah Washington - Please Send Me Someone To Love (mono)
TTITLE25=Junior Tamplin - Under The Viaduct (In Atlanta, GA) (mono)
TTITLE26=Junior Tamplin - Love Is A Sin (mono)
EXTD=8CD: Mercury 314 528 292-2 (1996-09-24), UPC 731452829221.
EXTT0=
EXTT1=
EXTT2=
EXTT3=
EXTT4=
EXTT5=
EXTT6=
EXTT7=
EXTT8=
EXTT9=
EXTT10=
EXTT11=
EXTT12=
EXTT13=
EXTT14=
EXTT15=
EXTT16=
EXTT17=
EXTT18=
EXTT19=
EXTT20=
EXTT21=
EXTT22=
EXTT23=
EXTT24=
EXTT25=
EXTT26=
PLAYORDER=
